<svg width="57" height="20" viewBox="0 0 57 20" fill="none" xmlns="http://www.w3.org/2000/svg">
<path d="M6.01966 6.30531C5.95667 6.66257 5.77819 6.9673 5.48423 7.21949C5.19027 7.47168 4.86481 7.59777 4.50786 7.59777C4.1509 7.59777 3.86744 7.47168 3.65747 7.21949C3.44749 6.9673 3.3635 6.66257 3.4055 6.30531C3.46849 5.94804 3.64697 5.64332 3.94093 5.39113C4.23489 5.13894 4.56035 5.01285 4.9173 5.01285C5.27426 5.01285 5.55772 5.13894 5.76769 5.39113C5.99866 5.64332 6.08265 5.94804 6.01966 6.30531ZM1.57873 16.8026C1.43175 17.328 1.38976 17.7798 1.45275 18.1581C1.53674 18.5364 1.79921 18.7466 2.24015 18.7886C2.47112 18.8306 2.72309 18.7886 2.99605 18.6625C3.26902 18.5154 3.48949 18.3578 3.65747 18.1896C4.1824 17.6643 4.69683 16.9602 5.20077 16.0776C5.7047 15.1949 6.23472 14.31 6.67566 13.4274C6.87412 13.0301 7.71876 11.357 7.86575 11.4411C8.01273 11.5251 7.17451 13.3981 7.02753 13.7133C6.81756 14.1546 6.55509 14.7011 6.24013 15.3525C5.92517 16.004 5.54722 16.645 5.10628 17.2755C4.68633 17.8849 4.22439 18.4103 3.72046 18.8516C3.21652 19.272 2.67059 19.4821 2.08267 19.4821C1.49474 19.4821 1.0433 19.3455 0.728344 19.0723C0.413384 18.7991 0.203411 18.4629 0.0984248 18.0636C-0.00656165 17.6432 -0.027559 17.2019 0.0354329 16.7396C0.0984248 16.2562 0.21391 15.8044 0.381888 15.3841L2.39763 10.2457C2.52361 9.95152 2.51311 9.67832 2.36613 9.42613C2.24015 9.17394 2.14566 9.00582 2.08267 8.92176L3.81495 8.89023C4.31888 8.89023 4.59185 8.9848 4.63384 9.17394C4.69683 9.34207 4.64434 9.61527 4.47636 9.99355L1.95669 15.8884C1.91469 16.0355 1.8622 16.1616 1.79921 16.2667C1.75721 16.3718 1.71522 16.4769 1.67322 16.582C1.63123 16.687 1.59973 16.7606 1.57873 16.8026Z" fill="#1BCFE7"/>
<path d="M15.2426 8.89023C15.2006 8.93226 15.1796 8.9848 15.1796 9.04785C15.0536 9.42613 14.8751 9.97254 14.6441 10.6871C14.4342 11.4016 14.1612 12.1792 13.8252 13.0198C13.4893 13.8394 13.1008 14.68 12.6599 15.5417C12.2399 16.3823 11.757 17.1389 11.2111 17.8114C10.6861 18.4629 10.1087 18.9672 9.4788 19.3245C8.84888 19.6818 8.17697 19.7868 7.46306 19.6397C6.98012 19.5557 6.65467 19.3245 6.48669 18.9462C6.33971 18.5679 6.27672 18.1161 6.29771 17.5907C6.33971 17.0653 6.44469 16.4874 6.61267 15.8569C6.80165 15.2264 7.01162 14.6065 7.24259 13.997C7.07461 14.2702 6.90663 14.3858 6.73866 14.3438C6.59167 14.2807 6.57068 14.1336 6.67566 13.9025C6.78065 13.7343 6.87514 13.5662 6.95913 13.3981C7.04312 13.2089 7.1376 13.0198 7.24259 12.8307C7.38957 12.5154 7.51555 12.1477 7.62054 11.7273C7.74653 11.307 7.82002 10.8972 7.84101 10.4979C7.86201 10.0986 7.83051 9.75187 7.74652 9.45765C7.68353 9.16343 7.54705 8.9848 7.33708 8.92176C7.56805 8.87972 7.78852 8.83769 7.99849 8.79566C8.16647 8.75363 8.33445 8.73261 8.50243 8.73261C8.6914 8.7116 8.81739 8.69058 8.88038 8.66957C9.11135 8.64855 9.30033 8.63804 9.44731 8.63804C9.59429 8.61703 9.70977 8.63804 9.79376 8.70109C9.89875 8.76414 9.96174 8.90074 9.98274 9.1109C10.0247 9.30004 10.0352 9.58375 10.0142 9.96203C9.99324 10.4874 9.88825 11.1284 9.69927 11.885C9.5103 12.6205 9.31082 13.251 9.10085 13.7764C8.91188 14.3018 8.7229 14.8271 8.53392 15.3525C8.34495 15.8779 8.19797 16.3613 8.09298 16.8026C8.00899 17.2439 7.9775 17.6327 7.99849 17.969C8.01949 18.2842 8.13498 18.4839 8.34495 18.5679C8.7229 18.7361 9.11135 18.715 9.5103 18.5049C9.90925 18.2737 10.2977 17.9164 10.6756 17.4331C11.0536 16.9497 11.4211 16.3613 11.778 15.6678C12.156 14.9743 12.5024 14.2387 12.8174 13.4611C12.5864 12.9778 12.4499 12.4419 12.4079 11.8534C12.3659 11.244 12.4184 10.7291 12.5654 10.3088C12.7754 9.61527 13.0588 9.08988 13.4158 8.73261C13.7937 8.35433 14.1402 8.12316 14.4552 8.0391C14.7701 7.93402 15.0116 7.96554 15.1796 8.13367C15.3685 8.30179 15.3895 8.55398 15.2426 8.89023Z" fill="#1BCFE7"/>
<path d="M26.7753 13.5068C26.6493 13.8011 26.2363 14.3123 25.9423 14.9427C25.6694 15.5732 25.3229 16.2037 24.903 16.8341C24.483 17.4646 23.9896 18.0215 23.4226 18.5049C22.8767 18.9882 22.2783 19.2299 21.6274 19.2299C21.1444 19.2299 20.735 19.1564 20.399 19.0093C20.0841 18.8411 19.8216 18.6415 19.6116 18.4103C19.1707 18.7466 18.7193 19.0198 18.2573 19.2299C17.7954 19.4191 17.3334 19.5031 16.8715 19.4821C16.2626 19.4611 15.7796 19.2825 15.4227 18.9462C15.0867 18.61 14.8558 18.1791 14.7298 17.6538C14.6248 17.1073 14.6248 16.4979 14.7298 15.8254C14.8348 15.1319 15.0342 14.4384 15.3282 13.7448C15.6431 13.0303 16.0316 12.3473 16.4935 11.6958C16.9555 11.0443 17.4489 10.4769 17.9739 9.99355C18.5198 9.51019 19.0762 9.13191 19.6431 8.85871C20.2101 8.56449 20.7665 8.42789 21.3124 8.4489C21.9003 8.4489 22.3728 8.61703 22.7297 8.95328C23.0867 9.28953 23.3177 9.73086 23.4226 10.2773C23.5486 10.8237 23.5591 11.4436 23.4541 12.1371C23.3492 12.8096 23.1497 13.4927 22.8557 14.1862C22.6248 14.7326 22.2783 15.3525 21.8164 16.0461C21.3544 16.7186 20.819 17.3385 20.2101 17.9059C20.483 18.4313 20.9765 18.694 21.6904 18.694C22.1943 18.694 22.6667 18.4839 23.1077 18.0636C23.5696 17.6432 23.9896 17.1389 24.3675 16.5504C24.7455 15.962 25.1863 15.1753 25.5835 14.5397C26.0356 13.5863 27.1859 12.0074 27.3749 11.6291C27.4589 11.4609 27.3224 12.4109 27.4904 12.474C27.6584 12.537 26.8803 13.2757 26.7753 13.5068ZM21.9738 9.48918C21.6379 9.40512 21.2704 9.45765 20.8715 9.64679C20.4725 9.81492 20.0736 10.0986 19.6746 10.4979C19.2757 10.8762 18.8872 11.3386 18.5093 11.885C18.1313 12.4103 17.7954 12.9883 17.5014 13.6187C17.1865 14.2702 16.9345 14.8902 16.7455 15.4786C16.5775 16.0461 16.4725 16.5609 16.4305 17.0233C16.3886 17.4856 16.42 17.8744 16.525 18.1896C16.63 18.4839 16.8295 18.673 17.1235 18.7571C17.4174 18.8411 17.7534 18.8096 18.1313 18.6625C18.5093 18.5154 18.8872 18.2842 19.2652 17.969C19.0972 17.7168 18.9712 17.4541 18.8872 17.1809C18.8032 16.9077 18.7612 16.6555 18.7612 16.4243C18.7822 16.0671 18.8662 15.7518 19.0132 15.4786C19.1812 15.2054 19.4647 15.0688 19.8636 15.0688C20.1366 15.0688 20.357 15.1634 20.525 15.3525C20.714 15.5417 20.8085 15.7623 20.8085 16.0145C20.8085 16.0776 20.798 16.1406 20.777 16.2037C20.777 16.2457 20.7665 16.2982 20.7455 16.3613C21.1024 15.8359 21.4279 15.2685 21.7219 14.659C22.0368 14.0075 22.2783 13.3876 22.4463 12.7991C22.6143 12.2107 22.7087 11.6853 22.7297 11.223C22.7507 10.7606 22.6982 10.3823 22.5723 10.0881C22.4463 9.77289 22.2468 9.57324 21.9738 9.48918Z" fill="#1BCFE7"/>
<path d="M35.2324 13.7133C34.8544 14.5329 34.4765 15.3 34.0985 16.0145C33.7206 16.7291 33.2901 17.3595 32.8072 17.9059C32.3453 18.4313 31.7993 18.8516 31.1694 19.1669C30.5605 19.4611 29.8256 19.6082 28.9647 19.6082C28.1458 19.6082 27.4949 19.4611 27.012 19.1669C26.529 18.8727 26.1826 18.4944 25.9726 18.032C25.7626 17.5487 25.6681 17.0023 25.6891 16.3928C25.7311 15.7834 25.8466 15.1529 26.0356 14.5014C26.2456 13.8499 26.508 13.2089 26.823 12.5785C27.1589 11.948 27.5159 11.3806 27.8938 10.8762C28.4818 10.0776 29.1432 9.46816 29.8781 9.04785C30.613 8.60652 31.3584 8.38586 32.1143 8.38586C32.9122 8.38586 33.4896 8.5855 33.8466 8.9848C34.2245 9.3841 34.3715 9.90949 34.2875 10.561C34.2455 10.8132 34.1405 11.0759 33.9726 11.3491C33.8256 11.6223 33.6471 11.8534 33.4371 12.0426C33.2272 12.2317 33.0067 12.3578 32.7757 12.4209C32.5447 12.4629 32.3453 12.3998 32.1773 12.2317C32.3453 12.0216 32.5237 11.7799 32.7127 11.5067C32.9227 11.2125 33.0697 10.9182 33.1537 10.624C33.3006 10.0776 33.3006 9.68883 33.1537 9.45765C33.0277 9.20547 32.8177 9.07937 32.5237 9.07937C32.2298 9.07937 31.9358 9.16343 31.6419 9.33156C31.3479 9.49969 31.0434 9.70984 30.7285 9.96203C30.4345 10.2142 30.1511 10.5084 29.8781 10.8447C29.6051 11.1599 29.3636 11.4752 29.1537 11.7904C29.0067 12.0005 28.8282 12.2843 28.6182 12.6415C28.4293 12.9988 28.2403 13.3981 28.0513 13.8394C27.8833 14.2597 27.7364 14.7116 27.6104 15.1949C27.4844 15.6783 27.4214 16.1511 27.4214 16.6135C27.4214 17.2439 27.5579 17.8114 27.8308 18.3157C28.1248 18.7991 28.6077 19.0408 29.2797 19.0408C29.9726 19.0408 30.5815 18.8727 31.1064 18.5364C31.6524 18.1791 32.1458 17.7378 32.5867 17.2124C33.0277 16.666 33.4266 16.0671 33.7836 15.4156C34.1405 14.7641 34.4765 14.1231 34.7915 13.4927C34.9384 13.1984 35.0854 13.0828 35.2324 13.1459C35.3794 13.2089 35.3794 13.3981 35.2324 13.7133Z" fill="#1BCFE7"/>
<path d="M46.3431 13.6818C46.1121 14.1652 45.8181 14.7326 45.4612 15.3841C45.1252 16.0355 44.7473 16.666 44.3273 17.2755C43.9074 17.8849 43.4559 18.4103 42.973 18.8516C42.5111 19.272 42.0491 19.5031 41.5872 19.5452C41.3352 19.5662 41.0623 19.5241 40.7683 19.4191C40.4743 19.293 40.2329 19.0828 40.0439 18.7886C39.8549 18.4734 39.7394 18.053 39.6974 17.5277C39.6764 16.9813 39.7814 16.2982 40.0124 15.4786C39.7604 15.8989 39.435 16.3928 39.036 16.9602C38.6371 17.5066 38.2066 18.0005 37.7447 18.4418C37.1358 19.0303 36.5688 19.377 36.0439 19.4821C35.54 19.5872 35.1095 19.5136 34.7526 19.2614C34.3956 18.9882 34.1332 18.5679 33.9652 18.0005C33.8182 17.4331 33.7972 16.7711 33.9022 16.0145C34.0072 15.237 34.2591 14.3963 34.6581 13.4927C35.078 12.568 35.687 11.6328 36.4849 10.6871C36.9468 10.1196 37.5032 9.63629 38.1541 9.23699C38.826 8.83769 39.498 8.55398 40.1699 8.38586C40.8628 8.21773 41.5242 8.19672 42.1541 8.32281C42.805 8.4489 43.351 8.75363 43.7919 9.23699C44.0229 9.46816 44.0859 9.68883 43.9809 9.89898C43.8969 10.1091 43.7184 10.1932 43.4455 10.1512C43.2775 9.56273 42.931 9.20547 42.4061 9.07937C41.9022 8.95328 41.3562 9.04785 40.7683 9.36308C40.0544 9.76238 39.3195 10.3823 38.5636 11.223C37.8077 12.0426 37.1463 12.9252 36.5793 13.8709C36.5163 13.976 36.4219 14.1441 36.2959 14.3753C36.1699 14.6065 36.0334 14.8797 35.8864 15.1949C35.7604 15.4891 35.6345 15.8044 35.5085 16.1406C35.4035 16.4559 35.33 16.7606 35.288 17.0548C35.204 17.6012 35.2355 18.0005 35.3825 18.2527C35.5505 18.5049 35.7709 18.631 36.0439 18.631C36.3379 18.631 36.6738 18.5154 37.0518 18.2842C37.4297 18.032 37.8077 17.6853 38.1856 17.2439C38.7316 16.5714 39.225 15.8674 39.6659 15.1319C40.1279 14.3753 40.5688 13.6082 40.9888 12.8307C41.3457 12.1582 41.6607 11.6433 41.9336 11.286C42.2276 10.9287 42.6266 10.7711 43.1305 10.8132C43.3405 10.8342 43.5504 10.8762 43.7604 10.9393C43.9914 10.9813 44.2224 10.9813 44.4533 10.9393C44.2853 11.1074 44.0544 11.4226 43.7604 11.885C43.4874 12.3263 43.1935 12.8412 42.8785 13.4296C42.5846 13.997 42.3116 14.5855 42.0596 15.1949C41.8077 15.8044 41.6292 16.3508 41.5242 16.8341C41.2722 18.0951 41.3772 18.7255 41.8392 18.7255C42.1751 18.7466 42.5426 18.5469 42.9415 18.1266C43.3405 17.7063 43.7289 17.2019 44.1069 16.6135C44.5058 16.025 44.9698 15.3342 45.3671 14.6986C45.7913 14.0198 47.2388 11.539 47.4067 11.2027C47.5537 10.9295 46.7297 13.0465 46.8767 13.1096C47.0236 13.1726 46.4901 13.3666 46.3431 13.6818Z" fill="#1BCFE7"/>
<path d="M52.6615 1.54527C53.3964 0.494486 54.0998 -0.0203973 54.7717 0.000618091H54.9292C55.1391 0.0216335 55.3491 0.0636648 55.5591 0.126712C55.7901 0.168743 56.021 0.168743 56.252 0.126712C55.958 0.420931 55.5276 0.946322 54.9607 1.70289C54.4147 2.43843 53.8058 3.30007 53.1339 4.28781C52.483 5.25453 51.8111 6.2948 51.1182 7.40863C50.4462 8.52246 49.8478 9.60476 49.3229 10.6555C48.9239 11.4541 48.5565 12.3053 48.2205 13.2089C47.8846 14.0916 47.6431 14.9322 47.4961 15.7308C47.3701 16.5084 47.3701 17.1809 47.4961 17.7483C47.6221 18.2947 47.9581 18.6205 48.504 18.7255C49.1969 18.8727 50.0998 18.2737 51.2126 16.9287C51.6536 16.4033 52.084 15.7834 52.504 15.0688C52.9449 14.3333 53.3019 13.6503 53.5748 13.0198C53.7848 12.4944 53.9318 11.99 54.0158 11.5067C54.0998 11.0233 54.0998 10.5925 54.0158 10.2142C53.9528 9.83594 53.7848 9.55222 53.5119 9.36308C53.2599 9.15293 52.8819 9.06886 52.378 9.1109C52.147 9.13191 51.9686 9.10039 51.8426 9.01632C51.7376 8.93226 51.6956 8.8482 51.7166 8.76414C51.7376 8.65906 51.8321 8.575 52 8.51195C52.189 8.42789 52.462 8.41738 52.8189 8.48043C53.3859 8.56449 53.8583 8.75363 54.2363 9.04785C54.6142 9.32105 54.8977 9.66781 55.0867 10.0881C55.2966 10.4874 55.4121 10.9393 55.4331 11.4436C55.4751 11.927 55.4436 12.4209 55.3386 12.9252C55.1916 13.5977 54.9607 14.2702 54.6457 14.9427C54.3517 15.6152 53.9843 16.2457 53.5434 16.8341C53.1024 17.4226 52.5985 17.9375 52.0315 18.3788C51.4646 18.7991 50.8557 19.0933 50.2048 19.2614C49.3019 19.5136 48.5355 19.5977 47.9056 19.5136C47.2967 19.4296 46.8137 19.2299 46.4568 18.9147C46.1208 18.5995 45.9003 18.2002 45.7953 17.7168C45.6904 17.2124 45.7114 16.6765 45.8583 16.1091C45.9843 15.6257 46.1628 15.0898 46.3938 14.5014C46.6457 13.913 46.9292 13.293 47.2442 12.6415C46.8872 13.335 46.1943 13.8508 45.8583 14.4603C45.5224 15.0697 45.1759 15.7038 44.882 16.2082C44.609 16.6916 44.2684 17.1222 44.0164 17.4794C43.7854 17.8157 43.4483 17.9795 43.3013 18.1266C43.1753 18.2317 43.4438 18.0612 43.3808 17.9561C43.2968 17.8301 43.5486 17.99 43.6536 17.8429C44.0106 17.3805 44.42 16.7501 44.882 15.9515C45.3439 15.1319 45.8268 14.2387 46.3308 13.272C46.8557 12.2843 47.3911 11.244 47.9371 10.1512C48.504 9.05836 49.0604 7.98656 49.6064 6.93578C50.1523 5.885 50.6772 4.89726 51.1812 3.97257C51.7061 3.02687 52.1995 2.21777 52.6615 1.54527Z" fill="#1BCFE7"/>
<path d="M6.01966 6.30531C5.95667 6.66257 5.77819 6.9673 5.48423 7.21949C5.19027 7.47168 4.86481 7.59777 4.50786 7.59777C4.1509 7.59777 3.86744 7.47168 3.65747 7.21949C3.44749 6.9673 3.3635 6.66257 3.4055 6.30531C3.46849 5.94804 3.64697 5.64332 3.94093 5.39113C4.23489 5.13894 4.56035 5.01285 4.9173 5.01285C5.27426 5.01285 5.55772 5.13894 5.76769 5.39113C5.99866 5.64332 6.08265 5.94804 6.01966 6.30531ZM1.57873 16.8026C1.43175 17.328 1.38976 17.7798 1.45275 18.1581C1.53674 18.5364 1.79921 18.7466 2.24015 18.7886C2.47112 18.8306 2.72309 18.7886 2.99605 18.6625C3.26902 18.5154 3.48949 18.3578 3.65747 18.1896C4.1824 17.6643 4.69683 16.9602 5.20077 16.0776C5.7047 15.1949 6.23472 14.31 6.67566 13.4274C6.87412 13.0301 7.71876 11.357 7.86575 11.4411C8.01273 11.5251 7.17451 13.3981 7.02753 13.7133C6.81756 14.1546 6.55509 14.7011 6.24013 15.3525C5.92517 16.004 5.54722 16.645 5.10628 17.2755C4.68633 17.8849 4.22439 18.4103 3.72046 18.8516C3.21652 19.272 2.67059 19.4821 2.08267 19.4821C1.49474 19.4821 1.0433 19.3455 0.728344 19.0723C0.413384 18.7991 0.203411 18.4629 0.0984248 18.0636C-0.00656165 17.6432 -0.027559 17.2019 0.0354329 16.7396C0.0984248 16.2562 0.21391 15.8044 0.381888 15.3841L2.39763 10.2457C2.52361 9.95152 2.51311 9.67832 2.36613 9.42613C2.24015 9.17394 2.14566 9.00582 2.08267 8.92176L3.81495 8.89023C4.31888 8.89023 4.59185 8.9848 4.63384 9.17394C4.69683 9.34207 4.64434 9.61527 4.47636 9.99355L1.95669 15.8884C1.91469 16.0355 1.8622 16.1616 1.79921 16.2667C1.75721 16.3718 1.71522 16.4769 1.67322 16.582C1.63123 16.687 1.59973 16.7606 1.57873 16.8026Z" stroke="#1BCFE7"/>
<path d="M15.2426 8.89023C15.2006 8.93226 15.1796 8.9848 15.1796 9.04785C15.0536 9.42613 14.8751 9.97254 14.6441 10.6871C14.4342 11.4016 14.1612 12.1792 13.8252 13.0198C13.4893 13.8394 13.1008 14.68 12.6599 15.5417C12.2399 16.3823 11.757 17.1389 11.2111 17.8114C10.6861 18.4629 10.1087 18.9672 9.4788 19.3245C8.84888 19.6818 8.17697 19.7868 7.46306 19.6397C6.98012 19.5557 6.65467 19.3245 6.48669 18.9462C6.33971 18.5679 6.27672 18.1161 6.29771 17.5907C6.33971 17.0653 6.44469 16.4874 6.61267 15.8569C6.80165 15.2264 7.01162 14.6065 7.24259 13.997C7.07461 14.2702 6.90663 14.3858 6.73866 14.3438C6.59167 14.2807 6.57068 14.1336 6.67566 13.9025C6.78065 13.7343 6.87514 13.5662 6.95913 13.3981C7.04312 13.2089 7.1376 13.0198 7.24259 12.8307C7.38957 12.5154 7.51555 12.1477 7.62054 11.7273C7.74653 11.307 7.82002 10.8972 7.84101 10.4979C7.86201 10.0986 7.83051 9.75187 7.74652 9.45765C7.68353 9.16343 7.54705 8.9848 7.33708 8.92176C7.56805 8.87972 7.78852 8.83769 7.99849 8.79566C8.16647 8.75363 8.33445 8.73261 8.50243 8.73261C8.6914 8.7116 8.81739 8.69058 8.88038 8.66957C9.11135 8.64855 9.30033 8.63804 9.44731 8.63804C9.59429 8.61703 9.70977 8.63804 9.79376 8.70109C9.89875 8.76414 9.96174 8.90074 9.98274 9.1109C10.0247 9.30004 10.0352 9.58375 10.0142 9.96203C9.99324 10.4874 9.88825 11.1284 9.69927 11.885C9.5103 12.6205 9.31082 13.251 9.10085 13.7764C8.91188 14.3018 8.7229 14.8271 8.53392 15.3525C8.34495 15.8779 8.19797 16.3613 8.09298 16.8026C8.00899 17.2439 7.9775 17.6327 7.99849 17.969C8.01949 18.2842 8.13498 18.4839 8.34495 18.5679C8.7229 18.7361 9.11135 18.715 9.5103 18.5049C9.90925 18.2737 10.2977 17.9164 10.6756 17.4331C11.0536 16.9497 11.4211 16.3613 11.778 15.6678C12.156 14.9743 12.5024 14.2387 12.8174 13.4611C12.5864 12.9778 12.4499 12.4419 12.4079 11.8534C12.3659 11.244 12.4184 10.7291 12.5654 10.3088C12.7754 9.61527 13.0588 9.08988 13.4158 8.73261C13.7937 8.35433 14.1402 8.12316 14.4552 8.0391C14.7701 7.93402 15.0116 7.96554 15.1796 8.13367C15.3685 8.30179 15.3895 8.55398 15.2426 8.89023Z" stroke="#1BCFE7"/>
<path d="M26.7753 13.5068C26.6493 13.8011 26.2363 14.3123 25.9423 14.9427C25.6694 15.5732 25.3229 16.2037 24.903 16.8341C24.483 17.4646 23.9896 18.0215 23.4226 18.5049C22.8767 18.9882 22.2783 19.2299 21.6274 19.2299C21.1444 19.2299 20.735 19.1564 20.399 19.0093C20.0841 18.8411 19.8216 18.6415 19.6116 18.4103C19.1707 18.7466 18.7193 19.0198 18.2573 19.2299C17.7954 19.4191 17.3334 19.5031 16.8715 19.4821C16.2626 19.4611 15.7796 19.2825 15.4227 18.9462C15.0867 18.61 14.8558 18.1791 14.7298 17.6538C14.6248 17.1073 14.6248 16.4979 14.7298 15.8254C14.8348 15.1319 15.0342 14.4384 15.3282 13.7448C15.6431 13.0303 16.0316 12.3473 16.4935 11.6958C16.9555 11.0443 17.4489 10.4769 17.9739 9.99355C18.5198 9.51019 19.0762 9.13191 19.6431 8.85871C20.2101 8.56449 20.7665 8.42789 21.3124 8.4489C21.9003 8.4489 22.3728 8.61703 22.7297 8.95328C23.0867 9.28953 23.3177 9.73086 23.4226 10.2773C23.5486 10.8237 23.5591 11.4436 23.4541 12.1371C23.3492 12.8096 23.1497 13.4927 22.8557 14.1862C22.6248 14.7326 22.2783 15.3525 21.8164 16.0461C21.3544 16.7186 20.819 17.3385 20.2101 17.9059C20.483 18.4313 20.9765 18.694 21.6904 18.694C22.1943 18.694 22.6667 18.4839 23.1077 18.0636C23.5696 17.6432 23.9896 17.1389 24.3675 16.5504C24.7455 15.962 25.1863 15.1753 25.5835 14.5397C26.0356 13.5863 27.1859 12.0074 27.3749 11.6291C27.4589 11.4609 27.3224 12.4109 27.4904 12.474C27.6584 12.537 26.8803 13.2757 26.7753 13.5068ZM21.9738 9.48918C21.6379 9.40512 21.2704 9.45765 20.8715 9.64679C20.4725 9.81492 20.0736 10.0986 19.6746 10.4979C19.2757 10.8762 18.8872 11.3386 18.5093 11.885C18.1313 12.4103 17.7954 12.9883 17.5014 13.6187C17.1865 14.2702 16.9345 14.8902 16.7455 15.4786C16.5775 16.0461 16.4725 16.5609 16.4305 17.0233C16.3886 17.4856 16.42 17.8744 16.525 18.1896C16.63 18.4839 16.8295 18.673 17.1235 18.7571C17.4174 18.8411 17.7534 18.8096 18.1313 18.6625C18.5093 18.5154 18.8872 18.2842 19.2652 17.969C19.0972 17.7168 18.9712 17.4541 18.8872 17.1809C18.8032 16.9077 18.7612 16.6555 18.7612 16.4243C18.7822 16.0671 18.8662 15.7518 19.0132 15.4786C19.1812 15.2054 19.4647 15.0688 19.8636 15.0688C20.1366 15.0688 20.357 15.1634 20.525 15.3525C20.714 15.5417 20.8085 15.7623 20.8085 16.0145C20.8085 16.0776 20.798 16.1406 20.777 16.2037C20.777 16.2457 20.7665 16.2982 20.7455 16.3613C21.1024 15.8359 21.4279 15.2685 21.7219 14.659C22.0368 14.0075 22.2783 13.3876 22.4463 12.7991C22.6143 12.2107 22.7087 11.6853 22.7297 11.223C22.7507 10.7606 22.6982 10.3823 22.5723 10.0881C22.4463 9.77289 22.2468 9.57324 21.9738 9.48918Z" stroke="#1BCFE7"/>
<path d="M35.2324 13.7133C34.8544 14.5329 34.4765 15.3 34.0985 16.0145C33.7206 16.7291 33.2901 17.3595 32.8072 17.9059C32.3453 18.4313 31.7993 18.8516 31.1694 19.1669C30.5605 19.4611 29.8256 19.6082 28.9647 19.6082C28.1458 19.6082 27.4949 19.4611 27.012 19.1669C26.529 18.8727 26.1826 18.4944 25.9726 18.032C25.7626 17.5487 25.6681 17.0023 25.6891 16.3928C25.7311 15.7834 25.8466 15.1529 26.0356 14.5014C26.2456 13.8499 26.508 13.2089 26.823 12.5785C27.1589 11.948 27.5159 11.3806 27.8938 10.8762C28.4818 10.0776 29.1432 9.46816 29.8781 9.04785C30.613 8.60652 31.3584 8.38586 32.1143 8.38586C32.9122 8.38586 33.4896 8.5855 33.8466 8.9848C34.2245 9.3841 34.3715 9.90949 34.2875 10.561C34.2455 10.8132 34.1405 11.0759 33.9726 11.3491C33.8256 11.6223 33.6471 11.8534 33.4371 12.0426C33.2272 12.2317 33.0067 12.3578 32.7757 12.4209C32.5447 12.4629 32.3453 12.3998 32.1773 12.2317C32.3453 12.0216 32.5237 11.7799 32.7127 11.5067C32.9227 11.2125 33.0697 10.9182 33.1537 10.624C33.3006 10.0776 33.3006 9.68883 33.1537 9.45765C33.0277 9.20547 32.8177 9.07937 32.5237 9.07937C32.2298 9.07937 31.9358 9.16343 31.6419 9.33156C31.3479 9.49969 31.0434 9.70984 30.7285 9.96203C30.4345 10.2142 30.1511 10.5084 29.8781 10.8447C29.6051 11.1599 29.3636 11.4752 29.1537 11.7904C29.0067 12.0005 28.8282 12.2843 28.6182 12.6415C28.4293 12.9988 28.2403 13.3981 28.0513 13.8394C27.8833 14.2597 27.7364 14.7116 27.6104 15.1949C27.4844 15.6783 27.4214 16.1511 27.4214 16.6135C27.4214 17.2439 27.5579 17.8114 27.8308 18.3157C28.1248 18.7991 28.6077 19.0408 29.2797 19.0408C29.9726 19.0408 30.5815 18.8727 31.1064 18.5364C31.6524 18.1791 32.1458 17.7378 32.5867 17.2124C33.0277 16.666 33.4266 16.0671 33.7836 15.4156C34.1405 14.7641 34.4765 14.1231 34.7915 13.4927C34.9384 13.1984 35.0854 13.0828 35.2324 13.1459C35.3794 13.2089 35.3794 13.3981 35.2324 13.7133Z" stroke="#1BCFE7"/>
<path d="M46.3431 13.6818C46.1121 14.1652 45.8181 14.7326 45.4612 15.3841C45.1252 16.0355 44.7473 16.666 44.3273 17.2755C43.9074 17.8849 43.4559 18.4103 42.973 18.8516C42.5111 19.272 42.0491 19.5031 41.5872 19.5452C41.3352 19.5662 41.0623 19.5241 40.7683 19.4191C40.4743 19.293 40.2329 19.0828 40.0439 18.7886C39.8549 18.4734 39.7394 18.053 39.6974 17.5277C39.6764 16.9813 39.7814 16.2982 40.0124 15.4786C39.7604 15.8989 39.435 16.3928 39.036 16.9602C38.6371 17.5066 38.2066 18.0005 37.7447 18.4418C37.1358 19.0303 36.5688 19.377 36.0439 19.4821C35.54 19.5872 35.1095 19.5136 34.7526 19.2614C34.3956 18.9882 34.1332 18.5679 33.9652 18.0005C33.8182 17.4331 33.7972 16.7711 33.9022 16.0145C34.0072 15.237 34.2591 14.3963 34.6581 13.4927C35.078 12.568 35.687 11.6328 36.4849 10.6871C36.9468 10.1196 37.5032 9.63629 38.1541 9.23699C38.826 8.83769 39.498 8.55398 40.1699 8.38586C40.8628 8.21773 41.5242 8.19672 42.1541 8.32281C42.805 8.4489 43.351 8.75363 43.7919 9.23699C44.0229 9.46816 44.0859 9.68883 43.9809 9.89898C43.8969 10.1091 43.7184 10.1932 43.4455 10.1512C43.2775 9.56273 42.931 9.20547 42.4061 9.07937C41.9022 8.95328 41.3562 9.04785 40.7683 9.36308C40.0544 9.76238 39.3195 10.3823 38.5636 11.223C37.8077 12.0426 37.1463 12.9252 36.5793 13.8709C36.5163 13.976 36.4219 14.1441 36.2959 14.3753C36.1699 14.6065 36.0334 14.8797 35.8864 15.1949C35.7604 15.4891 35.6345 15.8044 35.5085 16.1406C35.4035 16.4559 35.33 16.7606 35.288 17.0548C35.204 17.6012 35.2355 18.0005 35.3825 18.2527C35.5505 18.5049 35.7709 18.631 36.0439 18.631C36.3379 18.631 36.6738 18.5154 37.0518 18.2842C37.4297 18.032 37.8077 17.6853 38.1856 17.2439C38.7316 16.5714 39.225 15.8674 39.6659 15.1319C40.1279 14.3753 40.5688 13.6082 40.9888 12.8307C41.3457 12.1582 41.6607 11.6433 41.9336 11.286C42.2276 10.9287 42.6266 10.7711 43.1305 10.8132C43.3405 10.8342 43.5504 10.8762 43.7604 10.9393C43.9914 10.9813 44.2224 10.9813 44.4533 10.9393C44.2853 11.1074 44.0544 11.4226 43.7604 11.885C43.4874 12.3263 43.1935 12.8412 42.8785 13.4296C42.5846 13.997 42.3116 14.5855 42.0596 15.1949C41.8077 15.8044 41.6292 16.3508 41.5242 16.8341C41.2722 18.0951 41.3772 18.7255 41.8392 18.7255C42.1751 18.7466 42.5426 18.5469 42.9415 18.1266C43.3405 17.7063 43.7289 17.2019 44.1069 16.6135C44.5058 16.025 44.9698 15.3342 45.3671 14.6986C45.7913 14.0198 47.2388 11.539 47.4067 11.2027C47.5537 10.9295 46.7297 13.0465 46.8767 13.1096C47.0236 13.1726 46.4901 13.3666 46.3431 13.6818Z" stroke="#1BCFE7"/>
<path d="M52.6615 1.54527C53.3964 0.494486 54.0998 -0.0203973 54.7717 0.000618091H54.9292C55.1391 0.0216335 55.3491 0.0636648 55.5591 0.126712C55.7901 0.168743 56.021 0.168743 56.252 0.126712C55.958 0.420931 55.5276 0.946322 54.9607 1.70289C54.4147 2.43843 53.8058 3.30007 53.1339 4.28781C52.483 5.25453 51.8111 6.2948 51.1182 7.40863C50.4462 8.52246 49.8478 9.60476 49.3229 10.6555C48.9239 11.4541 48.5565 12.3053 48.2205 13.2089C47.8846 14.0916 47.6431 14.9322 47.4961 15.7308C47.3701 16.5084 47.3701 17.1809 47.4961 17.7483C47.6221 18.2947 47.9581 18.6205 48.504 18.7255C49.1969 18.8727 50.0998 18.2737 51.2126 16.9287C51.6536 16.4033 52.084 15.7834 52.504 15.0688C52.9449 14.3333 53.3019 13.6503 53.5748 13.0198C53.7848 12.4944 53.9318 11.99 54.0158 11.5067C54.0998 11.0233 54.0998 10.5925 54.0158 10.2142C53.9528 9.83594 53.7848 9.55222 53.5119 9.36308C53.2599 9.15293 52.8819 9.06886 52.378 9.1109C52.147 9.13191 51.9686 9.10039 51.8426 9.01632C51.7376 8.93226 51.6956 8.8482 51.7166 8.76414C51.7376 8.65906 51.8321 8.575 52 8.51195C52.189 8.42789 52.462 8.41738 52.8189 8.48043C53.3859 8.56449 53.8583 8.75363 54.2363 9.04785C54.6142 9.32105 54.8977 9.66781 55.0867 10.0881C55.2966 10.4874 55.4121 10.9393 55.4331 11.4436C55.4751 11.927 55.4436 12.4209 55.3386 12.9252C55.1916 13.5977 54.9607 14.2702 54.6457 14.9427C54.3517 15.6152 53.9843 16.2457 53.5434 16.8341C53.1024 17.4226 52.5985 17.9375 52.0315 18.3788C51.4646 18.7991 50.8557 19.0933 50.2048 19.2614C49.3019 19.5136 48.5355 19.5977 47.9056 19.5136C47.2967 19.4296 46.8137 19.2299 46.4568 18.9147C46.1208 18.5995 45.9003 18.2002 45.7953 17.7168C45.6904 17.2124 45.7114 16.6765 45.8583 16.1091C45.9843 15.6257 46.1628 15.0898 46.3938 14.5014C46.6457 13.913 46.9292 13.293 47.2442 12.6415C46.8872 13.335 46.1943 13.8508 45.8583 14.4603C45.5224 15.0697 45.1759 15.7038 44.882 16.2082C44.609 16.6916 44.2684 17.1222 44.0164 17.4794C43.7854 17.8157 43.4483 17.9795 43.3013 18.1266C43.1753 18.2317 43.4438 18.0612 43.3808 17.9561C43.2968 17.8301 43.5486 17.99 43.6536 17.8429C44.0106 17.3805 44.42 16.7501 44.882 15.9515C45.3439 15.1319 45.8268 14.2387 46.3308 13.272C46.8557 12.2843 47.3911 11.244 47.9371 10.1512C48.504 9.05836 49.0604 7.98656 49.6064 6.93578C50.1523 5.885 50.6772 4.89726 51.1812 3.97257C51.7061 3.02687 52.1995 2.21777 52.6615 1.54527Z" stroke="#1BCFE7"/>
</svg>
